<?xml version="1.0" encoding="utf-8"?>
<!-- Generator: Adobe Illustrator 28.2.0, SVG Export Plug-In . SVG Version: 6.00 Build 0)  -->
<svg version="1.1" id="Layer_1" xmlns="http://www.w3.org/2000/svg" xmlns:xlink="http://www.w3.org/1999/xlink" x="0px" y="0px"
	 viewBox="0 0 351 89" style="enable-background:new 0 0 351 89;" xml:space="preserve">
<style type="text/css">
	.st0{clip-path:url(#SVGID_00000141445537196852752050000017772869080505826954_);}
	.st1{fill-rule:evenodd;clip-rule:evenodd;fill:url(#SVGID_00000142897791877538462260000000493038480150621320_);}
	.st2{fill-rule:evenodd;clip-rule:evenodd;fill:url(#SVGID_00000168082284694363991940000013406428045439298987_);}
	.st3{fill-rule:evenodd;clip-rule:evenodd;fill:url(#SVGID_00000091717604402876143390000015220777105414515627_);}
	.st4{fill-rule:evenodd;clip-rule:evenodd;fill:url(#SVGID_00000145052239666737411870000014433877875671715774_);}
	.st5{fill-rule:evenodd;clip-rule:evenodd;fill:url(#SVGID_00000090973288788102228800000002129891607592411044_);}
	.st6{fill-rule:evenodd;clip-rule:evenodd;fill:url(#SVGID_00000181774436638752917170000004930086895945618316_);}
	.st7{fill-rule:evenodd;clip-rule:evenodd;fill:url(#SVGID_00000139273574209577233590000008618059723635303835_);}
	.st8{fill-rule:evenodd;clip-rule:evenodd;fill:url(#SVGID_00000156584248503877566340000007629559458633545121_);}
	.st9{fill-rule:evenodd;clip-rule:evenodd;fill:url(#SVGID_00000005964578559074155800000012411646928354867883_);}
	.st10{fill-rule:evenodd;clip-rule:evenodd;fill:url(#SVGID_00000004527425779518417080000012220011283944061108_);}
	.st11{fill-rule:evenodd;clip-rule:evenodd;fill:url(#SVGID_00000166669314622084633960000017046411318193073554_);}
	.st12{fill-rule:evenodd;clip-rule:evenodd;fill:url(#SVGID_00000078738843119641555250000018263979667270927748_);}
	.st13{fill:#FFFFFF;}
	.st14{fill:none;stroke:#EBA900;stroke-width:1.1657;stroke-miterlimit:10;}
</style>
<g>
	<defs>
		<rect id="SVGID_1_" x="0.5" y="0.5" width="350" height="88.2"/>
	</defs>
	<clipPath id="SVGID_00000042738795910427161220000013655523359774399121_">
		<use xlink:href="#SVGID_1_"  style="overflow:visible;"/>
	</clipPath>
	<g style="clip-path:url(#SVGID_00000042738795910427161220000013655523359774399121_);">
		
			<radialGradient id="SVGID_00000121263584628541274720000006611830766502614928_" cx="-126.7347" cy="432.1841" r="1.0001" gradientTransform="matrix(39.814 0 0 -39.814 5090.4243 17260.6816)" gradientUnits="userSpaceOnUse">
			<stop  offset="0" style="stop-color:#FFE18A"/>
			<stop  offset="0.55" style="stop-color:#FFCD03"/>
			<stop  offset="0.67" style="stop-color:#F7C50D"/>
			<stop  offset="1" style="stop-color:#E2B124"/>
		</radialGradient>
		<path style="fill-rule:evenodd;clip-rule:evenodd;fill:url(#SVGID_00000121263584628541274720000006611830766502614928_);" d="
			M3,59.2c-1.5-4.3-2.3-8.9-2.5-13.4c9,12.1,34.6,16.8,36.9,4C39.9,64.1,15.4,70.3,3,59.2z M34.6,41.8C53,62.1,21.8,77.8,6.5,66.9
			c3.9,6.6,9.4,12,16,15.9c6.6,3.8,14.1,5.9,21.7,5.9C50.8,72.7,50.6,51.1,34.6,41.8z M88.3,38.7c1.1,8.2-0.1,16.5-3.4,24
			C78.8,50.5,71.1,42.2,61.8,38c9,6.8,14.9,17.9,17.9,33.3c-3.6,4.7-8,8.6-13.1,11.5c-5.1,2.9-10.7,4.8-16.6,5.5
			c12.7-37.6-21.2-62.1-32.7-48c1.1-7.2,4.3-11.7,12.9-12.6c4.7-10.7,25-10.9,38.4-6.2L64,22C71.7,24.6,82.6,31.8,88.3,38.7z
			 M48.2,26.4c-5.6-0.1-7.8,1.4-11.8,1.5c3,2.2,5.6,1.3,7-0.6C45,26.8,46.6,26.5,48.2,26.4z"/>
		
			<radialGradient id="SVGID_00000152232467591710056910000003509684185762399128_" cx="-128.367" cy="436.5909" r="1" gradientTransform="matrix(79.6072 0 0 -79.6072 10196.0527 34803.4609)" gradientUnits="userSpaceOnUse">
			<stop  offset="0" style="stop-color:#FFFFFF"/>
			<stop  offset="0.33" style="stop-color:#FDE966"/>
			<stop  offset="0.66" style="stop-color:#CF9102"/>
			<stop  offset="1" style="stop-color:#8C3C10"/>
		</radialGradient>
		<path style="fill-rule:evenodd;clip-rule:evenodd;fill:url(#SVGID_00000152232467591710056910000003509684185762399128_);" d="
			M0.5,45.8c0,1.8,0.2,3.7,0.5,5.5c10.9,10.2,35.9,11.2,36.4-1.6C35.1,62.6,9.5,57.9,0.5,45.8z"/>
		
			<radialGradient id="SVGID_00000015347412170464819770000013950006344976061832_" cx="-128.4413" cy="436.7914" r="1" gradientTransform="matrix(83.401 0 0 -83.401 10689.1777 36488.7852)" gradientUnits="userSpaceOnUse">
			<stop  offset="0" style="stop-color:#FFFFFF"/>
			<stop  offset="0.33" style="stop-color:#FDE966"/>
			<stop  offset="0.66" style="stop-color:#CF9102"/>
			<stop  offset="1" style="stop-color:#8C3C10"/>
		</radialGradient>
		<path style="fill-rule:evenodd;clip-rule:evenodd;fill:url(#SVGID_00000015347412170464819770000013950006344976061832_);" d="
			M34.6,41.8C53,62.1,21.8,77.8,6.5,66.9c2.5,4.2,5.6,7.9,9.3,11.1C38.3,79.8,51.9,56,34.6,41.8z"/>
		
			<radialGradient id="SVGID_00000042003220353728361540000002379637406881340089_" cx="-129.0858" cy="438.5316" r="1" gradientTransform="matrix(142.198 0 0 -142.198 18407.5254 62496.1836)" gradientUnits="userSpaceOnUse">
			<stop  offset="0" style="stop-color:#FFFFFF"/>
			<stop  offset="0.33" style="stop-color:#FDE966"/>
			<stop  offset="0.66" style="stop-color:#CF9102"/>
			<stop  offset="1" style="stop-color:#8C3C10"/>
		</radialGradient>
		<path style="fill-rule:evenodd;clip-rule:evenodd;fill:url(#SVGID_00000042003220353728361540000002379637406881340089_);" d="
			M17.4,40.4c11.6-14.1,45.4,10.4,32.7,48c5.4-0.7,10.7-2.3,15.5-4.9C66.8,44.7,28.6,20.8,17.4,40.4z"/>
		
			<radialGradient id="SVGID_00000121969009285935787970000013233871045954943881_" cx="-122.5742" cy="420.9504" r="1" gradientTransform="matrix(17.5066 0 0 -17.5066 2161.6917 7428.2441)" gradientUnits="userSpaceOnUse">
			<stop  offset="0" style="stop-color:#FFFFFF"/>
			<stop  offset="0.33" style="stop-color:#FFFFFF"/>
			<stop  offset="0.66" style="stop-color:#FFFFFF;stop-opacity:0"/>
			<stop  offset="1" style="stop-color:#FFFFFF;stop-opacity:0"/>
		</radialGradient>
		<path style="fill-rule:evenodd;clip-rule:evenodd;fill:url(#SVGID_00000121969009285935787970000013233871045954943881_);" d="
			M1,51.3c10.9,10.2,35.9,11.2,36.4-1.6C36.1,62,13.1,60.9,1,51.3z"/>
		
			<radialGradient id="SVGID_00000029009302691354602980000000067660670368236990_" cx="-125.2166" cy="428.0847" r="1" gradientTransform="matrix(27.1772 0 0 -27.1772 3441.6462 11701.2979)" gradientUnits="userSpaceOnUse">
			<stop  offset="0" style="stop-color:#FFFFFF"/>
			<stop  offset="0.33" style="stop-color:#FFFFFF"/>
			<stop  offset="0.66" style="stop-color:#FFFFFF;stop-opacity:0"/>
			<stop  offset="1" style="stop-color:#FFFFFF;stop-opacity:0"/>
		</radialGradient>
		<path style="fill-rule:evenodd;clip-rule:evenodd;fill:url(#SVGID_00000029009302691354602980000000067660670368236990_);" d="
			M34.6,41.8C51,55.5,37.4,79.2,15.8,78.1C38.3,79.8,51.9,56,34.6,41.8z"/>
		
			<radialGradient id="SVGID_00000183237864714734557730000010162585460722635690_" cx="-126.8766" cy="432.5668" r="1" gradientTransform="matrix(41.6212 0 0 -41.6212 5333.769 18053.291)" gradientUnits="userSpaceOnUse">
			<stop  offset="0" style="stop-color:#FFFFFF"/>
			<stop  offset="0.33" style="stop-color:#FFFFFF"/>
			<stop  offset="0.66" style="stop-color:#FFFFFF;stop-opacity:0"/>
			<stop  offset="1" style="stop-color:#FFFFFF;stop-opacity:0"/>
		</radialGradient>
		<path style="fill-rule:evenodd;clip-rule:evenodd;fill:url(#SVGID_00000183237864714734557730000010162585460722635690_);" d="
			M22.3,35.2c14.1-7.4,42.3,13.2,43.2,48.2C66.6,49.3,37,26.6,22.3,35.2z"/>
		
			<linearGradient id="SVGID_00000068642402992675386370000001729823011105176225_" gradientUnits="userSpaceOnUse" x1="19.1239" y1="13.7632" x2="19.1239" y2="31.0766" gradientTransform="matrix(1 0 0 -1 0 90)">
			<stop  offset="0" style="stop-color:#FFFFFF"/>
			<stop  offset="1" style="stop-color:#FFFFFF;stop-opacity:0"/>
		</linearGradient>
		<path style="fill-rule:evenodd;clip-rule:evenodd;fill:url(#SVGID_00000068642402992675386370000001729823011105176225_);" d="
			M3.3,56.4c0.2,0.7,0.4,1.5,0.7,2.2c7.9,6.8,25.1,7.5,31-1.7C27.1,65,12.2,62.9,3.3,56.4z"/>
		
			<linearGradient id="SVGID_00000047038020440888092850000004215457351633361833_" gradientUnits="userSpaceOnUse" x1="65.7875" y1="20.6853" x2="34.6923" y2="20.6853" gradientTransform="matrix(1 0 0 -1 0 90)">
			<stop  offset="0" style="stop-color:#FFFFFF"/>
			<stop  offset="1" style="stop-color:#FFFFFF;stop-opacity:0"/>
		</linearGradient>
		<path style="fill-rule:evenodd;clip-rule:evenodd;fill:url(#SVGID_00000047038020440888092850000004215457351633361833_);" d="
			M32.1,85.7c3.7,1.1,7.5,1.7,11.4,1.8c4.4-11.3,5.6-26.1-0.9-36.5C49.5,65.4,40.3,80.6,32.1,85.7z"/>
		
			<linearGradient id="SVGID_00000000939897901711928150000018207287088412586627_" gradientUnits="userSpaceOnUse" x1="78.6314" y1="90.1801" x2="62.2078" y2="56.9259" gradientTransform="matrix(1 0 0 -1 0 90)">
			<stop  offset="0" style="stop-color:#FFFFFF"/>
			<stop  offset="1" style="stop-color:#FFFFFF;stop-opacity:0"/>
		</linearGradient>
		<path style="fill-rule:evenodd;clip-rule:evenodd;fill:url(#SVGID_00000000939897901711928150000018207287088412586627_);" d="
			M58.5,21.3l3.6-0.3c-8-1.7-19.8-2-26.6,2.5c17.7-7,39.4,7.5,52,21.8c0-2.1-0.1-4.1-0.3-6.2C79,30.2,68.9,24,58.5,21.3z"/>
		
			<radialGradient id="SVGID_00000116939833502068487710000006709638740170814644_" cx="-128.8842" cy="437.9874" r="1" gradientTransform="matrix(116.51 0 0 -116.51 15060.1602 50990.4453)" gradientUnits="userSpaceOnUse">
			<stop  offset="0" style="stop-color:#FFFFFF"/>
			<stop  offset="0.5" style="stop-color:#7D7D7D"/>
			<stop  offset="1" style="stop-color:#231916"/>
		</radialGradient>
		<path style="fill-rule:evenodd;clip-rule:evenodd;fill:url(#SVGID_00000116939833502068487710000006709638740170814644_);" d="
			M44.6,0.5c-11.1,0-21.9,4.2-30,11.8c-8.2,7.6-13.2,18-14,29.1c1.5,1.8,3.2,3.5,5.1,4.8c-0.3-8.9,2.3-17.6,7.6-24.7
			C18.6,14.4,26.1,9.3,34.7,7c8.6-2.3,17.7-1.5,25.7,2.1c8.1,3.6,14.7,9.9,18.8,17.8c2.8,1.8,5.4,3.8,7.9,6
			C84.5,23.5,79,15.3,71.3,9.5C63.6,3.7,54.2,0.5,44.6,0.5z"/>
		
			<radialGradient id="SVGID_00000168110927848958735440000009564194372121495176_" cx="-129.092" cy="438.5484" r="1" gradientTransform="matrix(143.17 0 0 -143.17 18477.8809 62777.6953)" gradientUnits="userSpaceOnUse">
			<stop  offset="0" style="stop-color:#FFFFFF"/>
			<stop  offset="0.5" style="stop-color:#7D7D7D"/>
			<stop  offset="1" style="stop-color:#231916"/>
		</radialGradient>
		<path style="fill-rule:evenodd;clip-rule:evenodd;fill:url(#SVGID_00000168110927848958735440000009564194372121495176_);" d="
			M44.6,3.1c-10.9,0-21.4,4.3-29.2,12C7.7,22.7,3.2,33.1,3.1,44c0.8,0.8,1.7,1.5,2.6,2.1c-0.3-8.9,2.3-17.6,7.6-24.7
			C18.6,14.3,26.1,9.2,34.7,7s17.7-1.5,25.7,2.1c8.1,3.6,14.7,9.9,18.8,17.8c1.4,0.9,2.8,1.9,4.1,2.9c-3-7.8-8.3-14.6-15.2-19.3
			C61.2,5.6,53,3.1,44.6,3.1z"/>
		<path class="st13" d="M109.1,36.1c0-3.8,0-4.5,0-5.3c0-0.8-0.2-1.2-1.1-1.4c-0.3-0.1-0.6-0.1-1-0.1c-0.3,0-0.4,0-0.4-0.2
			c0-0.2,0.2-0.2,0.5-0.2c1.3,0,2.9,0.1,3.6,0.1c1,0,2.5-0.1,3.6-0.1c3.1,0,4.2,1,4.6,1.4c0.8,0.8,1.2,1.8,1.2,3
			c0,0.8-0.1,1.6-0.4,2.4c-0.3,0.7-0.8,1.4-1.3,2c-0.6,0.6-1.3,1-2,1.3c-0.8,0.3-1.6,0.4-2.4,0.4c-0.2,0-0.3,0-0.5,0
			c-0.1,0-0.3,0-0.3-0.2c0-0.2,0.2-0.3,0.7-0.3c1.4,0,3.3-1.6,3.3-4.1c0-0.7-0.1-1.4-0.3-2c-0.3-0.6-0.6-1.2-1.1-1.7
			c-0.7-0.6-1.6-1-2.5-1c-0.3,0-0.7,0-1,0.1c-0.1,0-0.2,0.2-0.2,0.5v9.9c0,2.3,0,4.2,0.1,5.3c0.1,0.7,0.2,1.2,1,1.3
			c0.4,0.1,0.8,0.1,1.3,0.1c0.3,0,0.4,0.1,0.4,0.2c0,0.1-0.2,0.2-0.5,0.2c-1.6,0-3.2-0.1-3.8-0.1c-0.6,0-2.1,0.1-3.1,0.1
			c-0.3,0-0.5-0.1-0.5-0.2c0-0.2,0.1-0.2,0.4-0.2c0.3,0,0.6,0,0.9-0.1c0.5-0.1,0.6-0.6,0.7-1.4c0.1-1,0.1-3,0.1-5.3V36.1z"/>
		<path class="st13" d="M127.3,36.1c0-3.8,0-4.5,0-5.3c0-0.8-0.2-1.2-1.1-1.4c-0.3-0.1-0.6-0.1-1-0.1c-0.3,0-0.4,0-0.4-0.2
			c0-0.2,0.2-0.2,0.5-0.2c1.3,0,2.9,0.1,3.4,0.1c0.8,0,2.8-0.1,3.5-0.1c1.6-0.1,3.2,0.3,4.6,1.1c0.5,0.4,0.9,0.9,1.2,1.5
			c0.3,0.6,0.4,1.2,0.5,1.9c0,1.8-0.8,3.5-3.3,5.6c2.2,2.8,3.9,5,5.4,6.5c0.7,0.9,1.7,1.5,2.8,1.7c0.2,0,0.5,0.1,0.7,0.1
			c0.2,0,0.3,0.1,0.3,0.2s-0.2,0.2-0.5,0.2h-2.4c-0.9,0.1-1.8-0.1-2.7-0.5c-1.1-0.6-2-1.7-3.4-3.6c-1-1.4-2.1-3.1-2.5-3.4
			c-0.1-0.1-0.1-0.1-0.2-0.1c-0.1,0-0.2,0-0.2,0l-2.2,0c-0.1,0-0.2,0-0.2,0.2v0.3c0,2.3,0,4.3,0.1,5.3c0.1,0.7,0.2,1.3,1,1.4
			c0.4,0.1,0.8,0.1,1.2,0.1c0.2,0,0.3,0.1,0.3,0.2c0,0.1-0.2,0.2-0.5,0.2c-1.4,0-3.3-0.1-3.6-0.1c-0.5,0-2.1,0.1-3,0.1
			c-0.3,0-0.5-0.1-0.5-0.2c0-0.2,0.1-0.2,0.4-0.2c0.3,0,0.6,0,0.9-0.1c0.5-0.1,0.6-0.6,0.7-1.4c0.1-1,0.1-3,0.1-5.3L127.3,36.1z
			 M130.2,38c0,0.3,0,0.4,0.2,0.4c0.6,0.2,1.3,0.3,1.9,0.2c0.6,0.1,1.2-0.1,1.8-0.4c0.7-0.5,1.5-1.7,1.5-3.7c0-3.5-2.3-4.5-3.8-4.5
			c-0.4,0-0.9,0-1.3,0.1c-0.2,0-0.2,0.2-0.2,0.3V38z"/>
		<path class="st13" d="M148,36.1c0-3.8,0-4.5,0-5.3c0-0.8-0.3-1.3-0.8-1.4c-0.3-0.1-0.6-0.1-0.9-0.1c-0.2,0-0.4,0-0.4-0.2
			c0-0.2,0.2-0.2,0.6-0.2c0.9,0,2.5,0.1,3.2,0.1c0.6,0,2.1-0.1,3-0.1c0.3,0,0.5,0.1,0.5,0.2c0,0.1-0.1,0.2-0.4,0.2
			c-0.2,0-0.5,0-0.7,0.1c-0.7,0.1-0.9,0.5-0.9,1.4c0,0.8-0.1,1.5-0.1,5.3v4.4c0,2.4,0,4.4,0.1,5.4c0.1,0.7,0.2,1.1,1,1.2
			c0.4,0.1,0.8,0.1,1.3,0.1c0.3,0,0.4,0.1,0.4,0.2c0,0.1-0.2,0.2-0.5,0.2c-1.6,0-3.2-0.1-3.9-0.1c-0.7,0-2.1,0.1-3.1,0.1
			c-0.3,0-0.5-0.1-0.5-0.2c0-0.2,0.1-0.2,0.4-0.2c0.3,0,0.6,0,0.9-0.1c0.5-0.1,0.6-0.5,0.7-1.2c0.1-1,0.1-3,0.1-5.4L148,36.1z"/>
		<path class="st13" d="M158.2,38.3c0-4.2,2.8-9.7,10.2-9.7c6.2,0,10,3.6,10,9.3c0,5.7-4,10.2-10.3,10.2
			C161.1,48,158.2,42.7,158.2,38.3z M175,38.7c0-5.6-3.2-9-7.3-9c-2.9,0-6.1,1.6-6.1,7.8c0,5.2,2.9,9.3,7.6,9.3
			C171,46.8,175,45.9,175,38.7L175,38.7z"/>
		<path class="st13" d="M185.6,36.1c0-3.8,0-4.5,0-5.3c0-0.8-0.2-1.2-1.1-1.4c-0.3-0.1-0.6-0.1-1-0.1c-0.3,0-0.4,0-0.4-0.2
			c0-0.2,0.2-0.2,0.6-0.2c1.3,0,2.9,0.1,3.4,0.1c0.8,0,2.8-0.1,3.5-0.1c1.6-0.1,3.2,0.3,4.6,1.1c0.5,0.4,0.9,0.9,1.2,1.5
			c0.3,0.6,0.4,1.2,0.4,1.9c0,1.8-0.8,3.5-3.3,5.6c2.2,2.8,3.9,5,5.4,6.5c0.7,0.9,1.7,1.5,2.8,1.7c0.2,0,0.5,0.1,0.7,0.1
			c0.2,0,0.3,0.1,0.3,0.2c0,0.1-0.2,0.2-0.5,0.2h-2.3c-0.9,0.1-1.8-0.1-2.7-0.5c-1.1-0.6-2-1.7-3.4-3.6c-1-1.4-2.1-3.1-2.5-3.4
			c-0.1-0.1-0.1-0.1-0.2-0.1c-0.1,0-0.2,0-0.2,0l-2.2,0c-0.1,0-0.2,0-0.2,0.2v0.3c0,2.3,0,4.3,0.1,5.3c0.1,0.7,0.2,1.3,1,1.4
			c0.4,0.1,0.8,0.1,1.2,0.1c0.2,0,0.3,0.1,0.3,0.2c0,0.1-0.2,0.2-0.5,0.2c-1.4,0-3.3-0.1-3.6-0.1c-0.5,0-2.1,0.1-3,0.1
			c-0.3,0-0.5-0.1-0.5-0.2c0-0.2,0.1-0.2,0.4-0.2c0.3,0,0.6,0,0.9-0.1c0.5-0.1,0.6-0.6,0.7-1.4c0.1-1,0.1-3,0.1-5.3L185.6,36.1z
			 M188.5,38c0,0.3,0,0.4,0.2,0.4c0.6,0.2,1.3,0.3,1.9,0.2c0.6,0.1,1.2-0.1,1.8-0.4c0.7-0.5,1.5-1.7,1.5-3.7c0-3.5-2.3-4.5-3.8-4.5
			c-0.4,0-0.9,0-1.3,0.1c-0.2,0-0.2,0.2-0.2,0.3V38z"/>
		<path class="st13" d="M206.3,36.1c0-3.8,0-4.5,0-5.3c0-0.8-0.3-1.3-0.8-1.4c-0.3-0.1-0.6-0.1-0.9-0.1c-0.2,0-0.4,0-0.4-0.2
			c0-0.2,0.2-0.2,0.6-0.2c0.9,0,2.5,0.1,3.2,0.1s2.1-0.1,3-0.1c0.3,0,0.5,0.1,0.5,0.2c0,0.1-0.2,0.2-0.4,0.2c-0.2,0-0.5,0-0.7,0.1
			c-0.7,0.1-0.9,0.5-0.9,1.4c-0.1,0.8,0,1.5,0,5.3v4.4c0,2.4,0,4.4,0.1,5.4c0.1,0.7,0.2,1.1,1,1.2c0.4,0.1,0.8,0.1,1.3,0.1
			c0.3,0,0.4,0.1,0.4,0.2c0,0.1-0.2,0.2-0.5,0.2c-1.6,0-3.2-0.1-3.9-0.1c-0.7,0-2.1,0.1-3.1,0.1c-0.3,0-0.5-0.1-0.5-0.2
			c0-0.2,0.1-0.2,0.4-0.2c0.3,0,0.6,0,0.9-0.1c0.5-0.1,0.6-0.5,0.7-1.2c0.1-1,0.1-3,0.1-5.4L206.3,36.1z"/>
		<path class="st13" d="M222.7,30.3l-3.7,0.1c-1.4,0.1-2,0.2-2.4,0.7c-0.2,0.3-0.3,0.6-0.4,0.9c0,0.2-0.1,0.3-0.3,0.3
			c-0.2,0-0.2-0.1-0.2-0.4c0-0.4,0.5-2.7,0.5-2.9c0.1-0.3,0.2-0.5,0.3-0.5c0.3,0.1,0.7,0.2,1.1,0.3c0.7,0.1,1.7,0.1,2.5,0.1h9.8
			c0.6,0,1.1,0,1.7-0.1c0.2-0.1,0.5-0.1,0.7-0.1c0.2,0,0.2,0.2,0.2,0.5c0,0.5-0.1,2.2-0.1,2.9c0,0.2-0.1,0.4-0.2,0.4
			s-0.2-0.1-0.3-0.5v-0.3c0-0.6-0.7-1.3-2.9-1.4l-3.1-0.1v10.2c0,2.3,0,4.2,0.1,5.3c0.1,0.7,0.2,1.2,1,1.3c0.4,0.1,0.8,0.1,1.3,0.1
			c0.3,0,0.4,0.1,0.4,0.2c0,0.1-0.2,0.2-0.5,0.2c-1.6,0-3.2-0.1-3.9-0.1c-0.6,0-2.1,0.1-3.1,0.1c-0.3,0-0.5-0.1-0.5-0.2
			c0-0.2,0.1-0.2,0.4-0.2c0.3,0,0.6,0,0.9-0.1c0.5-0.1,0.6-0.6,0.7-1.4c0.1-1,0.1-3,0.1-5.3L222.7,30.3z"/>
		<path class="st13" d="M241.9,41.2c0-0.9-0.2-1.8-0.6-2.6c-0.2-0.4-3.5-5.9-4.4-7.1c-0.4-0.7-1-1.3-1.7-1.8c-0.3-0.2-0.7-0.3-1-0.3
			c-0.2,0-0.4,0-0.4-0.2c0-0.2,0.2-0.2,0.5-0.2c0.4,0,2.3,0.1,3.1,0.1c0.5,0,1.5-0.1,2.7-0.1c0.2,0,0.4,0.1,0.4,0.2
			c0,0.1-0.2,0.2-0.5,0.3c-0.1,0-0.2,0.1-0.3,0.2c-0.1,0.1-0.1,0.2-0.1,0.3c0,0.3,0.1,0.6,0.3,0.8c0.3,0.7,3.8,6.7,4.2,7.4
			c0.2-0.6,3.4-6.1,3.7-6.8c0.2-0.4,0.3-0.8,0.4-1.3c0-0.2,0-0.3-0.1-0.4c-0.1-0.1-0.2-0.2-0.4-0.2c-0.2,0-0.4-0.1-0.4-0.2
			c0-0.1,0.1-0.2,0.4-0.2c0.8,0,1.6,0.1,2.3,0.1c0.5,0,2.2-0.1,2.7-0.1c0.3,0,0.4,0.1,0.4,0.2s-0.2,0.2-0.5,0.2
			c-0.4,0-0.8,0.1-1.1,0.3c-0.5,0.3-1,0.7-1.3,1.2c-1.7,2.5-3.3,5.2-4.7,7.9c-0.3,0.8-0.4,1.6-0.4,2.5v2.1c0,0.4,0,1.4,0.1,2.5
			c0,0.7,0.3,1.3,1,1.4c0.4,0.1,0.8,0.1,1.2,0.1c0.3,0,0.4,0.1,0.4,0.2c0,0.1-0.2,0.2-0.5,0.2c-1.6,0-3.1-0.1-3.8-0.1
			c-0.7,0-2.2,0.1-3.1,0.1c-0.4,0-0.5-0.1-0.5-0.2c0-0.2,0.1-0.2,0.4-0.2c0.3,0,0.6,0,0.9-0.1c0.5-0.1,0.7-0.6,0.8-1.4
			c0.1-1,0.1-2.1,0.1-2.5L241.9,41.2z"/>
		<path class="st13" d="M282.2,46c0,0.7,0,0.7-0.3,0.9c-1.6,0.8-4,1.1-6,1.1c-6.1,0-11.5-2.9-11.5-9.7c-0.1-1.6,0.3-3.2,1.1-4.6
			c0.8-1.4,1.9-2.6,3.2-3.5c2-1.2,4.3-1.7,6.7-1.6c1.5,0,2.9,0.2,4.4,0.4c0.6,0.1,1.3,0.2,2,0.3c0.3,0,0.3,0.1,0.3,0.3
			c-0.1,1.4-0.2,2.7-0.2,4.1c0,0.4-0.1,0.5-0.3,0.5c-0.2,0-0.2-0.1-0.2-0.3c0-0.8-0.3-1.5-0.8-2.1c-1.5-1.3-3.5-2-5.5-1.9
			c-1.8-0.1-3.5,0.4-4.9,1.5c-1.4,1.2-2.3,3-2.3,6.1c0,5.3,3.4,9.3,8.6,9.3c0.7,0,1.4,0,2.1-0.3c0.2-0.1,0.3-0.2,0.4-0.4
			c0.1-0.2,0.1-0.4,0.1-0.5v-2.3c0-1.2,0-2.2,0-2.9c0-0.7-0.2-1.2-1.1-1.4c-0.3-0.1-0.6-0.1-1-0.1c-0.2,0-0.4-0.1-0.4-0.2
			c0-0.1,0.2-0.2,0.5-0.2c1.3,0,2.9,0.1,3.6,0.1s2.1-0.1,2.9-0.1c0.3,0,0.5,0,0.5,0.2c0,0.2-0.1,0.2-0.3,0.2c-0.2,0-0.5,0-0.7,0.1
			c-0.7,0.1-0.9,0.6-0.9,1.4c0,0.7,0,1.7,0,3L282.2,46z"/>
		<path class="st13" d="M288.3,38.3c0-4.2,2.8-9.7,10.3-9.7c6.2,0,10,3.6,10,9.3c0,5.7-4,10.2-10.3,10.2
			C291.2,48,288.3,42.7,288.3,38.3z M305.1,38.7c0-5.6-3.2-9-7.3-9c-2.9,0-6.1,1.6-6.1,7.8c0,5.2,2.9,9.3,7.6,9.3
			C301.1,46.8,305.1,45.9,305.1,38.7z"/>
		<path class="st13" d="M318.8,40.5c0,3.2,0,4.9,0.5,5.3c0.5,0.4,1.1,0.5,3,0.5c1.3,0,2.3,0,2.9-0.7c0.3-0.4,0.6-0.9,0.6-1.5
			c0-0.2,0.1-0.4,0.3-0.4c0.2,0,0.2,0.1,0.2,0.4c-0.1,1-0.2,1.9-0.4,2.9c-0.2,0.5-0.3,0.7-1.6,0.7c-1.8,0-3.1,0-4.2-0.1
			c-1.1,0-2-0.1-3-0.1c-0.3,0-0.8,0-1.4,0s-1.2,0.1-1.7,0.1c-0.3,0-0.5-0.1-0.5-0.2c0-0.2,0.1-0.2,0.4-0.2c0.3,0,0.6,0,0.9-0.1
			c0.5-0.1,0.6-0.6,0.7-1.4c0.1-1,0.1-3,0.1-5.3v-4.4c0-3.8,0-4.5,0-5.3c0-0.8-0.2-1.2-1.1-1.4c-0.3-0.1-0.5-0.1-0.8-0.1
			c-0.3,0-0.4,0-0.4-0.2c0-0.2,0.2-0.2,0.6-0.2c1.2,0,2.8,0.1,3.4,0.1c0.6,0,2.4-0.1,3.4-0.1c0.4,0,0.5,0.1,0.5,0.2
			c0,0.2-0.2,0.2-0.4,0.2c-0.3,0-0.6,0-1,0.1c-0.7,0.1-0.9,0.5-0.9,1.4c-0.1,0.8,0,1.5,0,5.3L318.8,40.5z"/>
		<path class="st13" d="M332.7,36.1c0-3.8,0-4.5,0-5.3c0-0.8-0.2-1.2-1.1-1.4c-0.3-0.1-0.6-0.1-1-0.1c-0.3,0-0.4,0-0.4-0.2
			c0-0.2,0.2-0.2,0.5-0.2c1.3,0,2.9,0.1,3.6,0.1s2.3-0.1,3.8-0.1c3.1,0,7.3,0,10,2.8c1.6,1.7,2.5,4,2.4,6.3c0,2.6-0.9,5-2.7,6.9
			c-1.1,1.2-3.7,2.9-8.3,2.9c-0.9,0-1.9-0.1-2.9-0.2c-0.9-0.1-1.8-0.1-2.4-0.1c-0.3,0-0.8,0-1.4,0c-0.6,0-1.2,0.1-1.7,0.1
			c-0.3,0-0.5-0.1-0.5-0.2c0-0.2,0.1-0.2,0.4-0.2c0.3,0,0.6,0,0.9-0.1c0.5-0.1,0.6-0.6,0.7-1.4c0.1-1,0.1-3,0.1-5.3L332.7,36.1z
			 M335.8,38.8c0,2.6,0,4.5,0,5c0,0.6,0.1,1.3,0.3,1.9c0.3,0.5,1.3,1,3.2,1c2.5,0,4.2-0.5,5.7-1.8c1.5-1.3,2.1-3.6,2.1-6.2
			c0-1.1-0.1-2.3-0.6-3.3c-0.4-1.1-1-2-1.8-2.9c-2.3-2.2-5.1-2.5-7.1-2.5c-0.5,0-1.1,0-1.6,0.2c-0.1,0-0.2,0.1-0.2,0.2
			c-0.1,0.1-0.1,0.2-0.1,0.3c0,0.8,0,3,0,5L335.8,38.8z"/>
		<path class="st14" d="M107.5,54.7h242.3"/>
		<path class="st13" d="M111.4,61.1l2.1,5.7c0.1,0.2,0.2,0.4,0.2,0.5c0.1,0.1,0.2,0.2,0.4,0.3c0.2,0.1,0.3,0.1,0.5,0.1V68
			c-1,0-2,0-3,0v-0.3c0.2,0,0.5-0.1,0.7-0.2c0.1-0.1,0.1-0.2,0-0.5l-0.5-1.3h-2.3l-0.4,1.3c0,0.1,0,0.2,0,0.2c0,0.1,0.1,0.1,0.2,0.2
			c0.3,0.1,0.6,0.2,0.9,0.2V68c-0.9,0-1.7,0-2.6,0v-0.3c0.3,0,0.5-0.1,0.8-0.2c0.2-0.1,0.3-0.3,0.4-0.6l2-5.8H111.4z M110.5,62.4
			l-1,3h2.1L110.5,62.4z"/>
		<path class="st13" d="M124.1,62v5c0,0.1,0,0.2,0,0.2c0,0.1,0.1,0.2,0.1,0.2c0.2,0.1,0.4,0.2,0.6,0.2V68c-1,0-1.9,0-2.9,0v-0.3
			c0.2,0,0.4-0.1,0.6-0.2c0.1-0.1,0.1-0.1,0.1-0.2c0-0.1,0-0.2,0-0.2v-4.8l-2.1,5.7h-0.1l-2.3-5.7v4.8c0,0.1,0,0.2,0.1,0.3
			c0,0.1,0.1,0.1,0.2,0.2c0.3,0.1,0.6,0.2,0.9,0.2V68c-0.9,0-1.8,0-2.6,0v-0.3c0.3,0,0.6-0.1,0.8-0.2c0.1,0,0.1-0.1,0.2-0.2
			c0-0.1,0.1-0.2,0.1-0.3v-4.9c0-0.4-0.3-0.7-0.9-0.7v-0.3c0.7,0,1.5,0,2.2,0l2,4.8l1.8-4.8c0.7,0,1.4,0,2.1,0v0.3
			c-0.2,0-0.4,0-0.6,0.2c-0.1,0.1-0.1,0.1-0.1,0.2C124.1,61.9,124.1,62,124.1,62z"/>
		<path class="st13" d="M131.8,66.9l0.4-0.7h0.3c-0.2,0.6-0.3,1.2-0.3,1.8c-1.7,0-3.3,0-4.9,0v-0.3c0.2,0,0.4-0.1,0.6-0.2
			c0.1,0,0.1-0.1,0.1-0.2c0-0.1,0-0.1,0-0.2v-5.3c0-0.1,0-0.1,0-0.2c0-0.1-0.1-0.1-0.1-0.1c-0.2-0.1-0.4-0.1-0.6-0.1v-0.3h4.7
			c0,0,0.1,0,0.1,0c0,0.1,0,0.1,0,0.2l0.2,1.2H132l-0.1-0.2c-0.1-0.3-0.3-0.5-0.5-0.7c-0.3-0.1-0.6-0.2-0.9-0.2h-0.9
			c-0.2,0-0.2,0.1-0.2,0.3v2.5h1.3c0.1,0,0.2,0,0.3,0c0.1,0,0.2-0.1,0.3-0.1c0.1-0.2,0.2-0.3,0.3-0.5h0.3c0,0.6,0,1.2,0,1.8h-0.3
			c0-0.2-0.1-0.4-0.3-0.6c-0.2-0.1-0.4-0.2-0.6-0.2h-1.3v2.5c0,0.1,0,0.3,0.1,0.4c0,0,0.1,0.1,0.2,0.1c0.1,0,0.1,0,0.2,0h0.6
			c0.3,0,0.6,0,0.9-0.2C131.5,67.3,131.7,67.1,131.8,66.9z"/>
		<path class="st13" d="M138.5,65l0.9,1.3c0.6,0.9,1.2,1.4,1.7,1.4l-0.2,0.4c-0.5,0-1-0.1-1.5-0.4c-0.4-0.2-0.8-0.6-1.1-1l-1-1.4
			h-0.1l-0.3,0v1.8c0,0.1,0,0.2,0,0.2c0,0.1,0.1,0.1,0.1,0.2c0.2,0.1,0.4,0.1,0.6,0.2V68c-1,0-1.9,0-2.9,0v-0.3
			c0.2,0,0.4-0.1,0.6-0.2c0.1,0,0.1-0.1,0.1-0.2c0-0.1,0-0.1,0-0.2V62c0-0.1,0-0.1,0-0.2c0-0.1-0.1-0.1-0.1-0.2
			c-0.2-0.1-0.4-0.2-0.6-0.2v-0.3c0.3,0,0.6,0,1,0h1h0.7c2,0,2.9,0.6,2.9,1.8C140.6,63.9,139.9,64.6,138.5,65z M137.8,61.5H137v3.4
			h0.3c0.6,0,1.1-0.2,1.6-0.6c0.2-0.2,0.3-0.4,0.4-0.6c0.1-0.2,0.1-0.4,0.1-0.7c0-0.4-0.1-0.8-0.4-1.1c-0.1-0.1-0.3-0.3-0.5-0.3
			C138.3,61.5,138.1,61.5,137.8,61.5L137.8,61.5z"/>
		<path class="st13" d="M145.6,62v5.1c0,0.1,0,0.2,0,0.2s0.1,0.1,0.1,0.2c0.2,0.1,0.4,0.1,0.6,0.2V68c-1,0-1.9,0-2.9,0v-0.3
			c0.2,0,0.4-0.1,0.6-0.2c0.1,0,0.1-0.1,0.1-0.2c0-0.1,0-0.1,0-0.2V62c0-0.1,0-0.2,0-0.2c0-0.1-0.1-0.1-0.1-0.2
			c-0.2-0.1-0.4-0.1-0.6-0.1v-0.3c1,0,1.9,0,2.9,0v0.3c-0.2,0-0.4,0-0.6,0.2c-0.1,0-0.1,0.1-0.1,0.2C145.6,61.9,145.6,61.9,145.6,62
			z"/>
		<path class="st13" d="M154.4,66.1h0.5c-0.1,0.6-0.4,1.1-0.9,1.4c-0.5,0.4-1.1,0.6-1.8,0.6c-0.5,0-0.9-0.1-1.3-0.2
			s-0.8-0.4-1.1-0.8c-0.6-0.7-1-1.7-0.9-2.6c0-0.9,0.3-1.8,0.9-2.6c0.3-0.3,0.7-0.6,1.1-0.8c0.4-0.2,0.8-0.3,1.3-0.2
			c0.3,0,0.6,0,0.9,0.1c0.3,0.1,0.5,0.1,0.8,0.1c0.2,0,0.3,0,0.5-0.1c0.1,0.6,0.2,1.3,0.5,1.9h-0.6c-0.5-1.1-1.2-1.7-2.1-1.7
			c-0.3,0-0.5,0-0.8,0.2c-0.2,0.1-0.4,0.3-0.6,0.5c-0.4,0.6-0.6,1.4-0.5,2.1c0,0.9,0.2,1.8,0.6,2.5c0.2,0.3,0.4,0.6,0.7,0.7
			c0.3,0.2,0.6,0.3,1,0.3c0.4,0,0.8-0.1,1.1-0.4C153.9,67,154.2,66.6,154.4,66.1z"/>
		<path class="st13" d="M160.8,61.1l2.1,5.7c0.1,0.2,0.2,0.4,0.2,0.5c0.1,0.1,0.2,0.2,0.4,0.3c0.2,0.1,0.3,0.1,0.5,0.1V68
			c-1,0-2,0-3,0v-0.3c0.2,0,0.5-0.1,0.7-0.2c0.1-0.1,0.1-0.2,0-0.5l-0.5-1.3h-2.3l-0.4,1.3c0,0.1,0,0.2,0,0.2c0,0.1,0.1,0.1,0.2,0.2
			c0.3,0.1,0.6,0.2,0.9,0.2V68c-0.9,0-1.7,0-2.6,0v-0.3c0.3,0,0.5-0.1,0.8-0.2c0.2-0.1,0.3-0.3,0.4-0.6l2-5.8H160.8z M159.9,62.4
			l-1,3h2.1L159.9,62.4z"/>
		<path class="st13" d="M165.8,63.3C165.8,63.3,165.8,63.3,165.8,63.3C165.7,63.3,165.7,63.3,165.8,63.3c-0.1,0.1-0.1,0-0.2,0
			c0,0,0,0,0,0l-0.1-0.1c0.1-0.1,0.2-0.3,0.3-0.4c0.1-0.2,0.1-0.3,0.1-0.5c0,0,0-0.1,0-0.1h-0.2c-0.1,0-0.2,0-0.3,0
			c-0.1,0-0.2-0.1-0.2-0.1c-0.1-0.1-0.2-0.3-0.2-0.5c0-0.2,0.1-0.4,0.2-0.5c0.1-0.1,0.3-0.2,0.5-0.2c0.1,0,0.2,0,0.3,0.1
			c0.1,0,0.2,0.1,0.2,0.2c0.1,0.2,0.2,0.4,0.2,0.7c0,0.3-0.1,0.6-0.2,0.8C166.2,62.8,166,63.1,165.8,63.3z"/>
		<path class="st13" d="M172.8,66.6c0-0.2,0-0.3-0.1-0.5c-0.1-0.2-0.2-0.3-0.3-0.4c-0.3-0.3-0.7-0.5-1.2-0.7c-0.5-0.2-1-0.5-1.4-0.9
			c-0.2-0.2-0.3-0.4-0.4-0.6c-0.1-0.2-0.1-0.5-0.1-0.7c0-0.3,0-0.5,0.1-0.7c0.1-0.2,0.2-0.4,0.4-0.6c0.4-0.3,1-0.5,1.5-0.5
			c0.3,0,0.6,0,0.9,0.1c0.2,0.1,0.3,0.1,0.5,0.1c0.1,0,0.1,0,0.2,0c0,0,0.1-0.1,0.1-0.1h0.4l0.1,1.5h-0.3c-0.1-0.3-0.3-0.7-0.6-0.9
			c-0.3-0.2-0.6-0.3-1-0.4c-0.2,0-0.3,0-0.4,0.1c-0.1,0.1-0.3,0.1-0.4,0.2c-0.1,0.1-0.2,0.2-0.2,0.3c-0.1,0.1-0.1,0.3-0.1,0.4
			c0,0.1,0,0.3,0.1,0.4c0.1,0.1,0.1,0.3,0.2,0.4c0.3,0.3,0.6,0.5,1,0.6L172,64l0.3,0.1l0.3,0.2c0.1,0.1,0.2,0.1,0.3,0.2
			c0.1,0,0.2,0.1,0.3,0.2c0.1,0.1,0.2,0.1,0.3,0.2c0.1,0.1,0.1,0.2,0.2,0.3c0.2,0.3,0.3,0.7,0.3,1c0,0.3,0,0.6-0.2,0.8
			c-0.1,0.3-0.3,0.5-0.5,0.6c-0.4,0.3-0.8,0.5-1.3,0.5c-0.5,0.1-0.9,0-1.3-0.2c-0.2-0.1-0.4-0.2-0.6-0.2c-0.1,0-0.2,0-0.2,0.1
			c-0.1,0.1-0.1,0.1-0.1,0.2h-0.4l-0.1-1.6h0.4c0.2,0.4,0.5,0.8,0.8,1c0.3,0.2,0.7,0.4,1.1,0.4c0.3,0,0.7-0.1,0.9-0.3
			c0.1-0.1,0.2-0.2,0.3-0.4C172.8,66.9,172.8,66.8,172.8,66.6z"/>
		<path class="st13" d="M183.2,65.3l-0.3,0v1.8c0,0.1,0,0.2,0,0.2c0,0.1,0.1,0.1,0.1,0.2c0.2,0.1,0.4,0.1,0.6,0.2V68
			c-1,0-1.9,0-2.9,0v-0.3c0.2,0,0.4-0.1,0.6-0.2c0.1,0,0.1-0.1,0.1-0.2c0-0.1,0-0.1,0-0.2V62c0-0.1,0-0.1,0-0.2
			c0-0.1-0.1-0.1-0.1-0.2c-0.2-0.1-0.4-0.2-0.6-0.2v-0.3c0.3,0,0.6,0,1,0h1h0.7c2,0,2.9,0.6,2.9,1.8c0,0.3-0.1,0.6-0.2,0.8
			c-0.1,0.3-0.3,0.5-0.6,0.6C184.9,64.9,184.1,65.2,183.2,65.3z M182.9,61.5v3.4h0.3c0.6,0,1.1-0.2,1.6-0.6c0.2-0.2,0.3-0.4,0.4-0.6
			c0.1-0.2,0.1-0.4,0.1-0.7c0-0.4-0.1-0.8-0.4-1.1c-0.1-0.1-0.3-0.3-0.5-0.3c-0.2-0.1-0.4-0.1-0.6-0.1L182.9,61.5z"/>
		<path class="st13" d="M192.6,65l0.9,1.3c0.6,0.9,1.2,1.4,1.7,1.4l-0.2,0.4c-0.5,0-1-0.1-1.5-0.4c-0.4-0.2-0.8-0.6-1.1-1l-1-1.4
			h-0.1l-0.3,0v1.8c0,0.1,0,0.2,0,0.2c0,0.1,0.1,0.1,0.1,0.2c0.2,0.1,0.4,0.1,0.6,0.2V68c-0.9,0-1.9,0-2.9,0v-0.3
			c0.2,0,0.4-0.1,0.6-0.2c0.1,0,0.1-0.1,0.1-0.2c0-0.1,0-0.1,0-0.2V62c0-0.1,0-0.1,0-0.2c0-0.1-0.1-0.1-0.1-0.2
			c-0.2-0.1-0.4-0.2-0.6-0.2v-0.3c0.3,0,0.6,0,1,0h1h0.7c2,0,2.9,0.6,2.9,1.8C194.6,63.9,193.9,64.6,192.6,65z M191.9,61.5H191v3.4
			h0.3c0.6,0,1.1-0.3,1.6-0.6c0.2-0.2,0.3-0.4,0.4-0.6c0.1-0.2,0.1-0.4,0.1-0.7c0-0.4-0.1-0.8-0.4-1.2c-0.1-0.1-0.3-0.2-0.5-0.3
			C192.3,61.5,192.1,61.5,191.9,61.5L191.9,61.5z"/>
		<path class="st13" d="M202.1,66.9l0.4-0.7h0.3c-0.2,0.6-0.3,1.2-0.3,1.8c-1.7,0-3.3,0-4.9,0v-0.3c0.2,0,0.4-0.1,0.6-0.2
			c0.1,0,0.1-0.1,0.1-0.2c0-0.1,0-0.1,0-0.2v-5.3c0-0.1,0-0.1,0-0.2c0-0.1-0.1-0.1-0.1-0.1c-0.2-0.1-0.4-0.1-0.6-0.1v-0.3h4.7
			c0,0,0.1,0,0.1,0c0,0.1,0,0.1,0.1,0.2l0.2,1.3h-0.3l-0.1-0.2c-0.1-0.3-0.3-0.5-0.5-0.7c-0.3-0.1-0.6-0.2-0.9-0.2h-1
			c-0.2,0-0.2,0.1-0.2,0.3v2.5h1.3c0.2,0,0.4,0,0.6-0.2c0.1-0.2,0.2-0.3,0.3-0.5h0.3c-0.1,0.6-0.1,1.2,0,1.8h-0.3
			c0-0.2-0.1-0.4-0.3-0.6c-0.2-0.1-0.4-0.2-0.6-0.2h-1.3v2.5c0,0.1,0,0.3,0.1,0.4c0,0,0.1,0.1,0.1,0.1c0.1,0,0.1,0,0.2,0h0.6
			c0.3,0,0.6,0,0.9-0.2C201.8,67.3,201.9,67.1,202.1,66.9z"/>
		<path class="st13" d="M210.8,66.1h0.5c-0.1,0.6-0.4,1.1-0.9,1.4c-0.5,0.4-1.1,0.6-1.8,0.6c-0.5,0-0.9-0.1-1.3-0.2
			c-0.4-0.2-0.8-0.4-1.1-0.8c-0.6-0.7-1-1.7-0.9-2.6c0-0.9,0.3-1.8,0.9-2.6c0.3-0.3,0.7-0.6,1.1-0.8c0.4-0.2,0.8-0.3,1.3-0.2
			c0.3,0,0.6,0,0.9,0.1c0.3,0.1,0.5,0.1,0.8,0.1c0.2,0,0.3,0,0.4-0.1c0.1,0.6,0.3,1.3,0.5,1.9h-0.6c-0.5-1.1-1.2-1.7-2.1-1.7
			c-0.3,0-0.5,0-0.8,0.2c-0.2,0.1-0.4,0.3-0.6,0.5c-0.4,0.6-0.5,1.4-0.5,2.1c0,0.9,0.2,1.8,0.6,2.5c0.2,0.3,0.4,0.6,0.7,0.7
			s0.6,0.3,1,0.3c0.4,0,0.8-0.1,1.1-0.4C210.4,67,210.7,66.6,210.8,66.1z"/>
		<path class="st13" d="M215.8,62v5.1c0,0.1,0,0.2,0,0.2c0,0.1,0.1,0.1,0.1,0.2c0.2,0.1,0.4,0.1,0.6,0.2V68c-1,0-1.9,0-2.9,0v-0.3
			c0.2,0,0.4-0.1,0.6-0.2c0.1,0,0.1-0.1,0.1-0.2c0-0.1,0-0.1,0-0.2V62c0-0.1,0-0.2,0-0.2c0-0.1-0.1-0.1-0.1-0.2
			c-0.2-0.1-0.4-0.1-0.6-0.1v-0.3c1,0,1.9,0,2.9,0v0.3c-0.2,0-0.4,0.1-0.6,0.2c-0.1,0-0.1,0.1-0.1,0.2
			C215.8,61.9,215.8,61.9,215.8,62z"/>
		<path class="st13" d="M222.1,61c0.4,0,0.9,0.1,1.3,0.2c0.4,0.2,0.8,0.4,1,0.8c0.6,0.7,0.9,1.7,0.9,2.6c0,0.9-0.3,1.8-0.9,2.6
			c-0.3,0.3-0.6,0.6-1,0.8c-0.4,0.2-0.8,0.3-1.2,0.2c-0.4,0-0.9-0.1-1.3-0.2s-0.8-0.4-1-0.8c-0.6-0.7-0.9-1.6-0.9-2.6
			c0-0.9,0.3-1.8,0.9-2.6c0.3-0.3,0.6-0.6,1-0.8C221.3,61,221.7,61,222.1,61z M222.3,67.8c0.2,0,0.5-0.1,0.7-0.2
			c0.2-0.1,0.4-0.3,0.5-0.5c0.4-0.7,0.5-1.4,0.5-2.2c0-0.9-0.2-1.7-0.6-2.5c-0.1-0.3-0.3-0.5-0.6-0.7c-0.3-0.2-0.6-0.3-0.9-0.3
			c-0.2,0-0.5,0.1-0.7,0.2c-0.2,0.1-0.4,0.3-0.5,0.5c-0.4,0.7-0.5,1.4-0.5,2.2c0,0.9,0.2,1.7,0.6,2.5c0.1,0.3,0.3,0.5,0.6,0.7
			C221.7,67.7,222,67.8,222.3,67.8z"/>
		<path class="st13" d="M235,61.1v0.3c-0.2,0-0.4,0-0.6,0.1c-0.1,0-0.1,0.1-0.1,0.2c0,0.1,0,0.1,0,0.2v5.2c0,0.1,0,0.1,0,0.2
			s0.1,0.1,0.1,0.1c0.2,0.1,0.4,0.1,0.6,0.1V68c-0.9,0-1.7,0-2.3,0v-0.3c0.1-0.1,0.2-0.3,0.2-0.6v-0.3c-0.2,0.4-0.5,0.8-0.9,1
			c-0.4,0.2-0.8,0.3-1.3,0.3c-0.3,0-0.6,0-0.9-0.1c-0.3-0.1-0.5-0.3-0.7-0.5c-0.2-0.2-0.4-0.5-0.5-0.7c-0.1-0.3-0.1-0.6-0.1-0.9V62
			c0-0.1,0-0.2,0-0.2c0-0.1-0.1-0.1-0.1-0.2c-0.2-0.1-0.4-0.1-0.6-0.1v-0.3c1,0,1.9,0,2.9,0v0.3c-0.2,0-0.4,0-0.6,0.1
			c-0.1,0-0.1,0.1-0.1,0.2c0,0.1,0,0.1,0,0.2v3.9c0,0.5,0.1,0.9,0.3,1.3c0.1,0.2,0.3,0.3,0.4,0.4c0.2,0.1,0.4,0.1,0.5,0.1
			c0.4,0,0.8-0.1,1.1-0.4c0.3-0.3,0.5-0.6,0.7-1V62c0-0.1,0-0.2,0-0.2c0-0.1-0.1-0.1-0.1-0.2c-0.2-0.1-0.4-0.1-0.6-0.1v-0.3
			C233,61.2,234,61.2,235,61.1z"/>
		<path class="st13" d="M240.9,66.6c0-0.2,0-0.3-0.1-0.5c-0.1-0.2-0.2-0.3-0.3-0.4c-0.3-0.3-0.7-0.5-1.2-0.7c-0.5-0.2-1-0.6-1.4-0.9
			c-0.2-0.2-0.3-0.4-0.4-0.6c-0.1-0.2-0.1-0.5-0.1-0.7c0-0.3,0-0.5,0.1-0.7c0.1-0.2,0.3-0.4,0.4-0.6c0.4-0.3,1-0.5,1.5-0.5
			c0.3,0,0.6,0,0.9,0.1c0.2,0.1,0.3,0.1,0.5,0.1c0.1,0,0.1,0,0.2,0c0,0,0.1-0.1,0.1-0.1h0.4l0.1,1.5h-0.3c-0.1-0.3-0.3-0.6-0.6-0.9
			c-0.3-0.2-0.6-0.3-1-0.4c-0.2,0-0.3,0-0.4,0.1c-0.1,0.1-0.3,0.1-0.4,0.2c-0.1,0.1-0.2,0.2-0.2,0.3c-0.1,0.1-0.1,0.3-0.1,0.4
			c0,0.1,0,0.3,0.1,0.4c0.1,0.1,0.1,0.3,0.2,0.4c0.3,0.3,0.6,0.5,1,0.6l0.3,0.1l0.3,0.1l0.3,0.2c0.1,0.1,0.2,0.1,0.3,0.2
			c0.1,0,0.2,0.1,0.3,0.2c0.1,0.1,0.2,0.1,0.3,0.2c0.1,0.1,0.1,0.2,0.2,0.3c0.3,0.4,0.4,0.9,0.3,1.3c-0.1,0.5-0.3,0.9-0.7,1.2
			c-0.5,0.3-1,0.5-1.6,0.5c-0.4,0-0.7-0.1-1-0.2c-0.2-0.1-0.4-0.2-0.6-0.2c-0.1,0-0.2,0-0.2,0.1c-0.1,0.1-0.1,0.1-0.1,0.2h-0.4
			l-0.1-1.6h0.4c0.2,0.4,0.5,0.7,0.8,1c0.3,0.2,0.7,0.4,1.1,0.4c0.2,0,0.3,0,0.5-0.1c0.2-0.1,0.3-0.2,0.4-0.3
			c0.1-0.1,0.2-0.2,0.2-0.4C240.8,66.9,240.9,66.8,240.9,66.6z"/>
		<path class="st13" d="M256.2,62v5c0,0.1,0,0.2,0,0.2c0,0.1,0.1,0.2,0.1,0.2c0.2,0.1,0.4,0.2,0.6,0.2V68c-1,0-1.9,0-2.9,0v-0.3
			c0.2,0,0.4-0.1,0.6-0.2c0.1-0.1,0.1-0.1,0.1-0.2c0-0.1,0-0.2,0-0.2v-4.8l-2.1,5.7h-0.1l-2.3-5.7v4.8c0,0.1,0,0.2,0.1,0.3
			s0.1,0.1,0.2,0.2c0.3,0.1,0.6,0.2,0.9,0.2V68c-0.9,0-1.8,0-2.6,0v-0.3c0.3,0,0.6-0.1,0.8-0.2c0.1,0,0.1-0.1,0.2-0.2
			c0-0.1,0.1-0.2,0.1-0.3v-4.9c0-0.4-0.3-0.7-0.9-0.7v-0.3c0.7,0,1.5,0,2.2,0l2,4.8l1.8-4.8c0.7,0,1.4,0,2.1,0v0.3
			c-0.2,0-0.4,0-0.6,0.2c-0.1,0.1-0.1,0.1-0.1,0.2C256.2,61.9,256.2,62,256.2,62z"/>
		<path class="st13" d="M263.8,66.9l0.4-0.7h0.3c-0.2,0.6-0.3,1.2-0.3,1.8c-1.7,0-3.3,0-4.9,0v-0.3c0.2,0,0.4-0.1,0.6-0.2
			c0.1,0,0.1-0.1,0.1-0.2c0-0.1,0-0.1,0-0.2v-5.3c0-0.1,0-0.1,0-0.2c0-0.1-0.1-0.1-0.1-0.1c-0.2-0.1-0.4-0.1-0.6-0.1v-0.3h4.7
			c0,0,0.1,0,0.1,0c0,0.1,0,0.1,0,0.2l0.2,1.2H264l-0.1-0.2c-0.1-0.3-0.3-0.5-0.5-0.7c-0.3-0.1-0.6-0.2-0.9-0.2h-0.9
			c-0.2,0-0.2,0.1-0.2,0.3v2.5h1.3c0.1,0,0.2,0,0.3,0c0.1,0,0.2-0.1,0.3-0.1c0.1-0.2,0.2-0.3,0.3-0.5h0.3c0,0.6,0,1.2,0,1.8h-0.3
			c0-0.2-0.1-0.4-0.3-0.6c-0.2-0.1-0.4-0.2-0.6-0.2h-1.3v2.5c0,0.1,0,0.3,0.1,0.4c0,0,0.1,0.1,0.2,0.1c0.1,0,0.1,0,0.2,0h0.6
			c0.3,0,0.6,0,0.9-0.2C263.5,67.3,263.7,67.1,263.8,66.9z"/>
		<path class="st13" d="M272.3,61.1h0.3l-0.4,1.5h-0.3c0.1-0.3,0-0.5-0.1-0.8c-0.1-0.1-0.1-0.1-0.2-0.2c-0.1,0-0.2-0.1-0.3,0h-0.9
			v5.6c0,0.1,0,0.2,0,0.2c0,0.1,0.1,0.1,0.2,0.2c0.2,0.1,0.5,0.1,0.7,0.2V68c-1,0-2.1,0-3.1,0v-0.3c0.2,0,0.5-0.1,0.7-0.2
			c0.1,0,0.1-0.1,0.2-0.2c0-0.1,0.1-0.2,0-0.2v-5.6h-0.8c-0.2,0-0.4,0.1-0.6,0.2c-0.2,0.2-0.4,0.5-0.5,0.8h-0.3l0.4-1.5h0.3
			c0.4,0.1,0.7,0.1,1.1,0.1h2.5C271.5,61.2,271.9,61.1,272.3,61.1z"/>
		<path class="st13" d="M277.9,61.1l2.1,5.7c0.1,0.2,0.2,0.4,0.2,0.5c0.1,0.1,0.2,0.2,0.4,0.3c0.2,0.1,0.3,0.1,0.5,0.1V68
			c-1,0-2,0-3,0v-0.3c0.2,0,0.5-0.1,0.7-0.2c0.1-0.1,0.1-0.2,0-0.5l-0.5-1.3h-2.3l-0.4,1.3c0,0.1,0,0.2,0,0.2c0,0.1,0.1,0.1,0.2,0.2
			c0.3,0.1,0.6,0.2,0.9,0.2V68c-0.9,0-1.7,0-2.6,0v-0.3c0.3,0,0.6-0.1,0.8-0.2c0.2-0.1,0.3-0.3,0.4-0.6l2-5.8H277.9z M277,62.4l-1,3
			h2.1L277,62.4z"/>
		<path class="st13" d="M288.1,66.9l0.4-0.7h0.3c-0.2,0.6-0.3,1.2-0.3,1.8c-1.7,0-3.3,0-4.9,0v-0.3c0.2,0,0.4-0.1,0.6-0.2
			c0.1,0,0.1-0.1,0.1-0.2c0-0.1,0-0.1,0-0.2V62c0-0.1,0-0.2,0-0.2c0-0.1-0.1-0.1-0.1-0.2c-0.2-0.1-0.4-0.1-0.6-0.1v-0.3
			c1,0,1.9,0,2.9,0v0.3c-0.2,0-0.4,0.1-0.6,0.2c-0.1,0-0.1,0.1-0.1,0.2c0,0.1,0,0.1,0,0.2v5.1c0,0.1,0,0.3,0.1,0.4
			c0,0,0.1,0.1,0.1,0.1c0.1,0,0.1,0,0.2,0h0.6c0.3,0,0.6,0,0.9-0.2C287.8,67.4,288,67.2,288.1,66.9z"/>
		<path class="st13" d="M294.7,66.6c0-0.2,0-0.3-0.1-0.5c-0.1-0.2-0.2-0.3-0.3-0.4c-0.4-0.3-0.7-0.5-1.2-0.7c-0.5-0.2-1-0.6-1.4-0.9
			c-0.2-0.2-0.3-0.4-0.4-0.6c-0.1-0.2-0.1-0.5-0.1-0.7c0-0.3,0-0.5,0.1-0.7c0.1-0.2,0.3-0.4,0.4-0.6c0.4-0.3,1-0.5,1.5-0.5
			c0.3,0,0.6,0,0.9,0.1c0.2,0.1,0.3,0.1,0.5,0.1c0.1,0,0.1,0,0.2,0c0,0,0.1-0.1,0.1-0.1h0.4l0.1,1.5h-0.3c-0.1-0.3-0.3-0.6-0.6-0.9
			c-0.3-0.2-0.6-0.3-1-0.4c-0.2,0-0.3,0-0.4,0.1c-0.1,0.1-0.3,0.1-0.4,0.2c-0.1,0.1-0.2,0.2-0.2,0.3c-0.1,0.1-0.1,0.3-0.1,0.4
			c0,0.3,0.1,0.6,0.3,0.8c0.3,0.3,0.6,0.5,1,0.6L294,64l0.3,0.1l0.3,0.2c0.1,0.1,0.2,0.1,0.3,0.2c0.1,0,0.2,0.1,0.3,0.2
			c0.1,0.1,0.2,0.1,0.3,0.2l0.2,0.3c0.2,0.3,0.3,0.7,0.3,1c0,0.3,0,0.6-0.2,0.8c-0.1,0.3-0.3,0.5-0.5,0.6c-0.5,0.3-1,0.5-1.6,0.5
			c-0.4,0-0.7-0.1-1-0.2c-0.2-0.1-0.4-0.2-0.6-0.2c-0.1,0-0.2,0-0.2,0.1c-0.1,0.1-0.1,0.1-0.1,0.2h-0.4l-0.1-1.6h0.4
			c0.2,0.4,0.4,0.7,0.8,1c0.3,0.2,0.7,0.4,1.1,0.4c0.3,0,0.7-0.1,0.9-0.3c0.1-0.1,0.2-0.2,0.3-0.4C294.7,66.9,294.8,66.8,294.7,66.6
			z"/>
		<path class="st13" d="M305.5,61.1c1-0.1,1.9,0.2,2.7,0.8c0.3,0.3,0.6,0.7,0.8,1.2c0.2,0.4,0.2,0.9,0.2,1.4c0,0.6-0.1,1.1-0.3,1.6
			c-0.2,0.4-0.4,0.8-0.8,1.1c-0.6,0.5-1.3,0.7-2,0.7c-0.3,0-0.6,0-0.9-0.1c-0.3-0.1-0.6-0.1-0.9-0.1c-0.5,0-1,0.1-1.5,0.2v-0.3
			c0.2,0,0.4-0.1,0.6-0.2c0.1,0,0.1-0.1,0.1-0.2c0-0.1,0-0.1,0-0.2v-5.1c0-0.1,0-0.2,0-0.2c0-0.1-0.1-0.1-0.1-0.2
			c-0.2-0.1-0.4-0.2-0.6-0.2v-0.3c0.5,0,0.9,0,1.4,0H305.5z M305.7,67.6c1.4,0,2.1-1,2.1-3c0-0.8-0.2-1.6-0.6-2.3
			c-0.2-0.3-0.4-0.5-0.8-0.7c-0.3-0.1-0.6-0.2-1-0.2c-0.2,0-0.4,0-0.6,0V67C304.9,67.4,305.1,67.6,305.7,67.6z"/>
		<path class="st13" d="M316.1,66.9l0.4-0.7h0.3c-0.2,0.6-0.3,1.2-0.3,1.8c-1.7,0-3.3,0-4.9,0v-0.3c0.2,0,0.4-0.1,0.6-0.2
			c0.1,0,0.1-0.1,0.1-0.2c0-0.1,0-0.1,0-0.2v-5.3c0-0.1,0-0.1,0-0.2c0-0.1-0.1-0.1-0.1-0.1c-0.2-0.1-0.4-0.1-0.6-0.1v-0.3h4.7
			c0,0,0.1,0,0.1,0c0,0.1,0,0.1,0.1,0.2l0.2,1.2h-0.3l-0.1-0.2c-0.1-0.3-0.3-0.5-0.5-0.7c-0.3-0.1-0.6-0.2-0.9-0.2h-0.9
			c-0.2,0-0.2,0.1-0.2,0.3v2.5h1.3c0.1,0,0.2,0,0.3,0c0.1,0,0.2-0.1,0.3-0.1c0.1-0.2,0.2-0.3,0.3-0.5h0.3c-0.1,0.6-0.1,1.2,0,1.8
			h-0.3c0-0.2-0.1-0.4-0.3-0.6c-0.2-0.1-0.4-0.2-0.6-0.2h-1.3v2.5c0,0.1,0,0.3,0.1,0.4c0,0,0.1,0.1,0.1,0.1c0.1,0,0.1,0,0.2,0h0.6
			c0.3,0,0.6,0,0.9-0.2C315.8,67.3,316,67.1,316.1,66.9z"/>
		<path class="st13" d="M322.9,61.1l2.1,5.7c0.1,0.2,0.1,0.3,0.2,0.5c0.1,0.1,0.2,0.2,0.4,0.3c0.2,0.1,0.3,0.1,0.5,0.1V68
			c-1,0-2,0-3,0v-0.3c0.2,0,0.5-0.1,0.7-0.2c0.1-0.1,0.1-0.2,0-0.5l-0.5-1.3H321l-0.4,1.3c0,0.1,0,0.2,0,0.2c0,0.1,0.1,0.1,0.2,0.2
			c0.3,0.1,0.6,0.2,0.9,0.2V68c-0.9,0-1.7,0-2.6,0v-0.3c0.3,0,0.5-0.1,0.8-0.2c0.2-0.1,0.3-0.3,0.4-0.6l2-5.8H322.9z M322,62.4l-1,3
			h2.1L322,62.4z"/>
		<path class="st13" d="M333.1,66.9l0.4-0.7h0.3c-0.2,0.6-0.3,1.2-0.3,1.8c-1.7,0-3.3,0-4.9,0v-0.3c0.2,0,0.4-0.1,0.6-0.2
			c0.1,0,0.1-0.1,0.1-0.2c0-0.1,0-0.1,0-0.2V62c0-0.1,0-0.2,0-0.2c0-0.1-0.1-0.1-0.1-0.2c-0.2-0.1-0.4-0.1-0.6-0.1v-0.3
			c1,0,1.9,0,2.9,0v0.3c-0.2,0-0.4,0.1-0.6,0.2c-0.1,0-0.1,0.1-0.1,0.2c0,0.1,0,0.1,0,0.2v5.1c0,0.1,0,0.3,0.1,0.4
			c0,0,0.1,0.1,0.2,0.1c0.1,0,0.1,0,0.2,0h0.6c0.3,0,0.6,0,0.9-0.2C332.8,67.3,333,67.2,333.1,66.9z"/>
		<path class="st13" d="M340.7,66.9l0.4-0.7h0.3c-0.2,0.6-0.3,1.2-0.3,1.8c-1.7,0-3.3,0-4.9,0v-0.3c0.2,0,0.4-0.1,0.6-0.2
			c0.1,0,0.1-0.1,0.1-0.2c0-0.1,0-0.1,0-0.2v-5.3c0-0.1,0-0.1,0-0.2c0-0.1-0.1-0.1-0.1-0.1c-0.2-0.1-0.4-0.1-0.6-0.1v-0.3h4.7
			c0,0,0.1,0,0.1,0c0,0.1,0,0.1,0.1,0.2l0.2,1.2h-0.3l-0.1-0.2c-0.1-0.3-0.3-0.5-0.5-0.7c-0.3-0.1-0.6-0.2-0.9-0.2h-0.9
			c-0.2,0-0.2,0.1-0.2,0.3v2.5h1.3c0.1,0,0.2,0,0.3,0c0.1,0,0.2-0.1,0.3-0.1c0.1-0.2,0.2-0.3,0.3-0.5h0.3c-0.1,0.6-0.1,1.2,0,1.8
			h-0.3c0-0.2-0.1-0.4-0.3-0.6c-0.2-0.1-0.4-0.2-0.6-0.2h-1.3v2.5c0,0.1,0,0.3,0.1,0.4c0,0,0.1,0.1,0.1,0.1c0.1,0,0.1,0,0.2,0h0.6
			c0.3,0,0.6,0,0.9-0.2C340.4,67.3,340.5,67.1,340.7,66.9z"/>
		<path class="st13" d="M347.4,65l0.9,1.3c0.6,0.9,1.2,1.4,1.7,1.4l-0.2,0.4c-0.5,0-1-0.1-1.5-0.4c-0.4-0.2-0.8-0.6-1.1-1l-1-1.4
			h-0.1l-0.3,0v1.8c0,0.1,0,0.2,0,0.2c0,0.1,0.1,0.1,0.1,0.2c0.2,0.1,0.4,0.1,0.6,0.2V68c-0.9,0-1.9,0-2.9,0v-0.3
			c0.2,0,0.4-0.1,0.6-0.2c0.1,0,0.1-0.1,0.1-0.2c0-0.1,0-0.1,0-0.2V62c0-0.1,0-0.1,0-0.2c0-0.1-0.1-0.1-0.1-0.2
			c-0.2-0.1-0.4-0.2-0.6-0.2v-0.3c0.3,0,0.6,0,1,0h1h0.7c2,0,2.9,0.6,2.9,1.8C349.5,63.9,348.8,64.6,347.4,65z M346.7,61.5h-0.8v3.4
			h0.3c0.6,0,1.1-0.3,1.6-0.6c0.2-0.2,0.3-0.4,0.4-0.6c0.1-0.2,0.1-0.4,0.1-0.7c0-0.4-0.1-0.8-0.4-1.2c-0.1-0.1-0.3-0.2-0.5-0.3
			C347.1,61.5,346.9,61.5,346.7,61.5L346.7,61.5z"/>
	</g>
</g>
</svg>
